# xmcd
#
# Track frame offsets:
#	150
#	19632
#	35799
#	54972
#	70915
#	98032
#	115768
#	134530
#	148376
#	168110
#
# Disc length: 2516 seconds
#
# Revision: 1
# Processed by: cddbd v1.5.2PL0 Copyright (c) Steve Scherf et al.
# Submitted via: audiograbber 1.83.01
#
DISCID=8909d20a
DTITLE=Sonia Leigh - 1978 December
DYEAR=2011
DGENRE=Country
TTITLE0=Ain't Dead Yet
TTITLE1=My Name Is Money
TTITLE2=Bar
TTITLE3=Ribbon Of Red
TTITLE4=I Just Might
TTITLE5=Virginia {featuring Amy Ray}
TTITLE6=A Poem From The Ocean Floor
TTITLE7=I Won't Tell
TTITLE8=Roamin' {featuring Zac Brown}
TTITLE9=1978 December
EXTD=
EXTT0=
EXTT1=
EXTT2=
EXTT3=
EXTT4=
EXTT5=
EXTT6=
EXTT7=
EXTT8=
EXTT9=
PLAYORDER=
